<svg width="160" height="36" viewBox="0 0 160 36" fill="none" xmlns="http://www.w3.org/2000/svg">
<g clip-path="url(#clip0_10_2956)">
<path d="M26.1717 27.752H26.6173V36H25.2827C16.6163 36 11.602 31.0019 11.602 22.8423V18.6463L14.4181 17.9303C15.2428 17.7192 15.9924 17.278 16.5815 16.6569C17.1707 16.0358 17.5757 15.2598 17.7505 14.4173C17.9253 13.5747 17.8629 12.6994 17.5703 11.8909C17.2777 11.0825 16.7667 10.3734 16.0956 9.84446C15.4244 9.31549 14.6199 8.98785 13.7738 8.89883C12.9277 8.80982 12.0738 8.96301 11.3095 9.34097C10.5452 9.71893 9.90103 10.3065 9.45041 11.0367C8.9998 11.767 8.76081 12.6106 8.76065 13.4715V31.4483H5.00077e-06V13.16C-0.000478161 12.6097 0.0340506 12.06 0.103371 11.5141C0.921093 5.02363 6.5211 0 13.3086 0C19.4622 0 24.6419 4.13096 26.1717 9.74274C26.9668 12.682 26.7089 15.8112 25.4435 18.5765C24.3713 20.9101 22.6524 22.8782 20.4959 24.2418C21.2194 27.2104 22.7584 27.759 26.1717 27.759" fill="white"/>
<path d="M47.8689 11.9024V16.9423H47.0534C45.3399 16.9423 44.0031 17.4188 43.0429 18.3719C42.0828 19.3251 41.6043 20.6199 41.6073 22.2565V31.3437H36.7837V12.2139H41.6073V14.6873C43.0559 12.8276 44.8728 11.8977 47.058 11.8977L47.8689 11.9024Z" fill="white"/>
<path d="M68.5898 23.5444H53.9512C54.2525 24.7001 54.9369 25.7161 55.8899 26.4223C56.903 27.1501 58.1233 27.5231 59.3652 27.4847C60.4107 27.4967 61.4452 27.2677 62.3903 26.8152C63.2339 26.4273 63.9776 25.8473 64.5632 25.1205L67.779 27.9798C66.7678 29.1958 65.4949 30.1612 64.0579 30.802C62.5323 31.4821 60.8805 31.8237 59.2136 31.8039C57.3399 31.8317 55.4898 31.3782 53.8364 30.4858C52.2739 29.6478 50.9709 28.3887 50.0716 26.8477C49.1885 25.2969 48.7198 23.54 48.7118 21.75C48.7037 19.9601 49.1566 18.199 50.0257 16.64C50.8855 15.1336 52.1377 13.8952 53.6457 13.06C55.2109 12.1857 56.9734 11.7371 58.7611 11.7582C61.5971 11.7582 63.9637 12.7137 65.861 14.6246C67.7583 16.5354 68.7085 18.9314 68.7115 21.8125C68.7092 22.3919 68.6685 22.9704 68.5898 23.5444ZM61.7908 17.1027C60.9167 16.4085 59.8377 16.0312 58.7266 16.0312C57.6155 16.0312 56.5366 16.4085 55.6624 17.1027C54.7801 17.8366 54.1623 18.8451 53.9053 19.9713H63.5526C63.296 18.8443 62.6772 17.8354 61.7931 17.1027H61.7908Z" fill="white"/>
<path d="M99.6219 13.6993C100.913 14.9934 101.558 16.7253 101.558 18.895V31.3553H96.7346V20.3433C96.7346 19.1685 96.3992 18.2309 95.7285 17.5304C95.0578 16.8299 94.1612 16.4781 93.0388 16.475C91.8566 16.475 90.8972 16.8361 90.1607 17.5583C89.4241 18.2805 89.0558 19.2336 89.0558 20.4176V31.3436H84.2322V20.3433C84.2322 19.1825 83.8915 18.248 83.21 17.5397C82.5286 16.8314 81.6175 16.4765 80.4766 16.475C79.9516 16.454 79.4278 16.5399 78.9362 16.7276C78.4445 16.9152 77.9951 17.2009 77.6146 17.5676C77.2462 17.9397 76.9579 18.3851 76.7682 18.8756C76.5784 19.3662 76.4912 19.8913 76.5121 20.4176V31.3436H71.6976V12.2115H76.5213V14.1875C77.9439 12.5618 79.8082 11.7497 82.1144 11.7512C83.3343 11.7264 84.5415 12.0067 85.6288 12.5672C86.633 13.0936 87.4751 13.8889 88.0635 14.8663C89.6255 12.7896 91.7693 11.7512 94.4951 11.7512C96.6343 11.7559 98.3432 12.4053 99.6219 13.6993Z" fill="white"/>
<path d="M124.654 21.7822C124.654 24.6277 123.683 27.0097 121.739 28.9283C119.796 30.8469 117.381 31.8039 114.495 31.7993C111.61 31.7993 109.193 30.8408 107.243 28.9237C105.294 27.0066 104.318 24.6246 104.315 21.7776C104.315 18.9322 105.291 16.5494 107.243 14.6292C109.196 12.709 111.613 11.7505 114.495 11.7536C117.38 11.7536 119.795 12.7121 121.739 14.6292C123.684 16.5463 124.656 18.9306 124.654 21.7822ZM118.223 25.5645C119.165 24.5353 119.688 23.184 119.688 21.7811C119.688 20.3781 119.165 19.0269 118.223 17.9977C117.736 17.5042 117.158 17.1126 116.522 16.8455C115.885 16.5784 115.203 16.4409 114.514 16.4409C113.825 16.4409 113.143 16.5784 112.507 16.8455C111.871 17.1126 111.292 17.5042 110.806 17.9977C109.853 19.0176 109.322 20.3681 109.322 21.7718C109.322 23.1755 109.853 24.526 110.806 25.5459C111.799 26.5194 113.128 27.0636 114.511 27.0636C115.894 27.0636 117.222 26.5194 118.216 25.5459L118.223 25.5645Z" fill="white"/>
<path d="M133.463 16.668V24.623C133.463 26.2596 134.332 27.0779 136.07 27.0779C136.933 27.0456 137.779 26.8269 138.551 26.4363V30.9833C137.461 31.5533 136.247 31.8364 135.02 31.8063C132.907 31.8063 131.316 31.2359 130.247 30.0953C129.178 28.9547 128.643 27.394 128.639 25.4134V16.6726H125.633V12.2139H128.639V9.02672L133.463 7.3576V12.2139H138.551V16.668H133.463Z" fill="white"/>
<path d="M159.901 23.5444H145.251C145.553 24.7001 146.237 25.7161 147.19 26.4223C148.203 27.1504 149.423 27.5235 150.665 27.4847C151.71 27.497 152.744 27.268 153.688 26.8152C154.533 26.428 155.277 25.8479 155.863 25.1205L159.079 27.9799C158.068 29.1958 156.795 30.1612 155.358 30.802C153.833 31.4836 152.181 31.8269 150.514 31.8086C148.64 31.8366 146.79 31.3831 145.136 30.4905C143.574 29.6518 142.27 28.3929 141.369 26.8524C140.487 25.3011 140.019 23.5442 140.012 21.7544C140.004 19.9646 140.457 18.2036 141.326 16.6447C142.185 15.1376 143.438 13.8984 144.946 13.0624C146.511 12.188 148.273 11.7395 150.061 11.7606C152.897 11.7606 155.263 12.7168 157.159 14.6292C159.054 16.5417 160.002 18.9392 160.002 21.8218C160.007 22.3976 159.973 22.9731 159.901 23.5444ZM153.109 17.1027C152.235 16.4085 151.156 16.0313 150.045 16.0313C148.934 16.0313 147.855 16.4085 146.981 17.1027C146.098 17.8366 145.481 18.8451 145.224 19.9713H154.871C154.612 18.8414 153.989 17.8307 153.1 17.098L153.109 17.1027Z" fill="white"/>
</g>
<defs>
<clipPath id="clip0_10_2956">
<rect width="160" height="36" fill="white"/>
</clipPath>
</defs>
</svg>
