<svg width="254" height="58" viewBox="0 0 254 58" fill="none" xmlns="http://www.w3.org/2000/svg">
<g clip-path="url(#clip0_10_5661)">
<path d="M41.5475 44.0563H42.2549V57.15H40.1363C26.3783 57.15 18.4182 49.2156 18.4182 36.2622V29.6009L22.8887 28.4643C24.1979 28.1292 25.3879 27.4288 26.3232 26.4428C27.2585 25.4569 27.9014 24.225 28.1789 22.8874C28.4564 21.5498 28.3573 20.1602 27.8928 18.8768C27.4283 17.5935 26.6172 16.4678 25.5517 15.6281C24.4862 14.7883 23.2091 14.2682 21.8659 14.1269C20.5226 13.9856 19.1672 14.2288 17.9538 14.8288C16.7404 15.4288 15.7179 16.3615 15.0025 17.5208C14.2872 18.68 13.9078 20.0193 13.9075 21.386V49.9241H-7.32006e-06V20.8915C-0.00077434 20.0179 0.0540401 19.1452 0.164087 18.2787C1.46222 7.97502 10.3522 0 21.1275 0C30.8963 0 39.119 6.5579 41.5475 15.4666C42.8099 20.1327 42.4004 25.1003 40.3916 29.4902C38.6894 33.1947 35.9607 36.3191 32.5372 38.4838C33.6858 43.1965 36.1289 44.0674 41.5475 44.0674" fill="#5700FF"/>
<path d="M75.9918 18.895V26.8958H74.6973C71.977 26.8958 69.8548 27.6524 68.3306 29.1655C66.8064 30.6785 66.0467 32.7341 66.0516 35.3322V49.7581H58.3941V19.3895H66.0516V23.3161C68.3513 20.3638 71.2356 18.8876 74.7046 18.8876L75.9918 18.895Z" fill="#5700FF"/>
<path d="M108.886 37.3767H85.6475C86.1259 39.2115 87.2124 40.8243 88.7252 41.9454C90.3336 43.1008 92.2708 43.693 94.2422 43.632C95.902 43.651 97.5442 43.2875 99.0446 42.5691C100.384 41.9533 101.564 41.0326 102.494 39.8788L107.599 44.418C105.994 46.3484 103.973 47.881 101.692 48.8982C99.27 49.9778 96.6478 50.5202 94.0015 50.4888C91.0271 50.5329 88.0901 49.8129 85.4652 48.3963C82.9848 47.0659 80.9163 45.067 79.4887 42.6208C78.0867 40.1588 77.3427 37.3697 77.3299 34.5282C77.3172 31.6867 78.036 28.8908 79.4158 26.4161C80.7807 24.0246 82.7687 22.0586 85.1626 20.7328C87.6473 19.3448 90.4453 18.6327 93.2832 18.6662C97.7853 18.6662 101.542 20.183 104.554 23.2165C107.566 26.25 109.075 30.0536 109.08 34.6273C109.076 35.5471 109.011 36.4656 108.886 37.3767ZM98.0928 27.1505C96.7052 26.0485 94.9923 25.4496 93.2285 25.4496C91.4647 25.4496 89.7518 26.0485 88.3641 27.1505C86.9634 28.3156 85.9827 29.9166 85.5746 31.7045H100.89C100.482 29.9154 99.5 28.3137 98.0965 27.1505H98.0928Z" fill="#5700FF"/>
<path d="M158.15 21.7477C160.199 23.802 161.224 26.5514 161.224 29.9958V49.7765H153.566V32.2949C153.566 30.43 153.034 28.9416 151.969 27.8295C150.904 26.7175 149.481 26.159 147.699 26.1541C145.822 26.1541 144.299 26.7273 143.13 27.8738C141.961 29.0203 141.376 30.5334 141.376 32.413V49.7581H133.719V32.2949C133.719 30.4522 133.178 28.9686 132.096 27.8443C131.014 26.7199 129.568 26.1565 127.757 26.1541C126.923 26.1207 126.092 26.2571 125.311 26.555C124.531 26.853 123.817 27.3064 123.213 27.8886C122.628 28.4793 122.171 29.1864 121.869 29.9651C121.568 30.7439 121.43 31.5774 121.463 32.413V49.7581H113.82V19.3858H121.477V22.5227C123.736 19.9419 126.695 18.6527 130.357 18.6551C132.293 18.6157 134.21 19.0607 135.936 19.9505C137.53 20.7862 138.867 22.0486 139.801 23.6003C142.28 20.3035 145.684 18.6551 150.011 18.6551C153.407 18.6625 156.12 19.6934 158.15 21.7477Z" fill="#5700FF"/>
<path d="M197.889 34.5793C197.889 39.0964 196.346 42.8778 193.261 45.9237C190.176 48.9695 186.343 50.4888 181.76 50.4814C177.18 50.4814 173.343 48.9597 170.249 45.9163C167.154 42.8729 165.604 39.0915 165.599 34.5719C165.599 30.0549 167.149 26.2722 170.249 23.2239C173.348 20.1756 177.185 18.6539 181.76 18.6588C186.34 18.6588 190.174 20.1805 193.261 23.2239C196.349 26.2672 197.891 30.0524 197.889 34.5793ZM187.679 40.5836C189.174 38.9497 190.005 36.8046 190.005 34.5775C190.005 32.3503 189.174 30.2052 187.679 28.5713C186.906 27.7879 185.988 27.1663 184.978 26.7422C183.968 26.3182 182.885 26.0999 181.791 26.0999C180.698 26.0999 179.615 26.3182 178.605 26.7422C177.594 27.1663 176.677 27.7879 175.904 28.5713C174.391 30.1905 173.549 32.3343 173.549 34.5627C173.549 36.7911 174.391 38.9349 175.904 40.5541C177.481 42.0995 179.591 42.9635 181.786 42.9635C183.981 42.9635 186.09 42.0995 187.668 40.5541L187.679 40.5836Z" fill="#5700FF"/>
<path d="M211.873 26.4604V39.089C211.873 41.6871 213.252 42.9861 216.011 42.9861C217.381 42.9349 218.724 42.5876 219.95 41.9676V49.186C218.219 50.0909 216.292 50.5402 214.345 50.4924C210.99 50.4924 208.465 49.5871 206.768 47.7763C205.071 45.9655 204.22 43.488 204.215 40.3438V26.4677H199.442V19.3895H204.215V14.3299L211.873 11.6802V19.3895H219.95V26.4604H211.873Z" fill="#5700FF"/>
<path d="M253.843 37.3767H230.586C231.065 39.2115 232.151 40.8243 233.664 41.9454C235.272 43.1013 237.209 43.6935 239.181 43.6319C240.84 43.6515 242.481 43.288 243.98 42.5691C245.321 41.9543 246.503 41.0335 247.433 39.8788L252.538 44.418C250.933 46.3484 248.912 47.8809 246.631 48.8982C244.209 49.9802 241.587 50.5251 238.94 50.4961C235.966 50.5405 233.029 49.8206 230.404 48.4037C227.923 47.0723 225.854 45.0737 224.424 42.6281C223.023 40.1655 222.281 37.3764 222.268 34.5351C222.256 31.6938 222.975 28.8983 224.354 26.4235C225.719 24.0309 227.707 22.0637 230.101 20.7365C232.586 19.3485 235.384 18.6364 238.222 18.6699C242.724 18.6699 246.48 20.1879 249.489 23.2239C252.499 26.2599 254.004 30.0659 254.004 34.6421C254.01 35.5562 253.957 36.4698 253.843 37.3767ZM243.061 27.1505C241.673 26.0485 239.96 25.4496 238.196 25.4496C236.433 25.4496 234.72 26.0485 233.332 27.1505C231.931 28.3156 230.951 29.9166 230.542 31.7045H245.858C245.446 29.9107 244.457 28.3061 243.046 27.1431L243.061 27.1505Z" fill="#5700FF"/>
</g>
<defs>
<clipPath id="clip0_10_5661">
<rect width="254" height="57.15" fill="white"/>
</clipPath>
</defs>
</svg>
