<svg width="179" height="54" viewBox="0 0 179 54" fill="none" xmlns="http://www.w3.org/2000/svg">
<rect width="178.076" height="54" rx="27" fill="#5700FF"/>
<path d="M69.7509 23.4205H71.4441C71.393 21.5568 69.7453 20.2045 67.3816 20.2045C65.0464 20.2045 63.2566 21.5398 63.2566 23.5455C63.2566 25.1648 64.4157 26.1136 66.285 26.6193L67.66 26.9943C68.9043 27.3239 69.8646 27.733 69.8646 28.767C69.8646 29.9034 68.7793 30.6534 67.285 30.6534C65.9328 30.6534 64.8078 30.0511 64.7055 28.7841H62.9441C63.0578 30.892 64.6884 32.1932 67.2964 32.1932C70.0293 32.1932 71.6032 30.7557 71.6032 28.7841C71.6032 26.6875 69.7339 25.875 68.2566 25.5114L67.1203 25.2159C66.2112 24.983 65.0009 24.5568 65.0066 23.4432C65.0066 22.4545 65.91 21.7216 67.3418 21.7216C68.6771 21.7216 69.6259 22.3466 69.7509 23.4205ZM73.8849 32H75.5837V23.2727H73.8849V32ZM74.7428 21.9261C75.328 21.9261 75.8167 21.4716 75.8167 20.9148C75.8167 20.358 75.328 19.8977 74.7428 19.8977C74.1519 19.8977 73.6689 20.358 73.6689 20.9148C73.6689 21.4716 74.1519 21.9261 74.7428 21.9261ZM81.8483 35.4545C84.0699 35.4545 85.7858 34.4375 85.7858 32.1932V23.2727H84.1211V24.6875H83.9961C83.6949 24.1477 83.0926 23.1591 81.4676 23.1591C79.3597 23.1591 77.8086 24.8239 77.8086 27.6023C77.8086 30.3864 79.3938 31.8693 81.4563 31.8693C83.0586 31.8693 83.6779 30.9659 83.9847 30.4091H84.0926V32.125C84.0926 33.4943 83.1551 34.0852 81.8654 34.0852C80.4506 34.0852 79.8995 33.375 79.5983 32.875L78.1381 33.4773C78.5983 34.5455 79.7631 35.4545 81.8483 35.4545ZM81.8313 30.4602C80.3142 30.4602 79.5245 29.2955 79.5245 27.5795C79.5245 25.9034 80.2972 24.6023 81.8313 24.6023C83.3142 24.6023 84.1097 25.8125 84.1097 27.5795C84.1097 29.3807 83.2972 30.4602 81.8313 30.4602ZM90.0831 26.8182C90.0831 25.4261 90.9354 24.6307 92.1172 24.6307C93.2706 24.6307 93.9695 25.3864 93.9695 26.6534V32H95.6683V26.4489C95.6683 24.2898 94.4808 23.1591 92.6967 23.1591C91.3842 23.1591 90.5263 23.767 90.1229 24.6932H90.0149V23.2727H88.3842V32H90.0831V26.8182ZM104.713 20.3636H102.957V32H104.713V20.3636ZM109.152 26.8182C109.152 25.4261 110.005 24.6307 111.187 24.6307C112.34 24.6307 113.039 25.3864 113.039 26.6534V32H114.738V26.4489C114.738 24.2898 113.55 23.1591 111.766 23.1591C110.454 23.1591 109.596 23.767 109.192 24.6932H109.084V23.2727H107.454V32H109.152V26.8182Z" fill="white"/>
</svg>
